<svg version="1.1" id="Layer_1" xmlns="http://www.w3.org/2000/svg" xmlns:xlink="http://www.w3.org/1999/xlink" x="0px" y="0px"
	 width="100%" viewBox="0 0 200 200" enable-background="new 0 0 200 200" xml:space="preserve">
<path fill="#FEFEFE" opacity="1.000000" stroke="none" 
	d="
M94.000000,201.000000 
	C62.666668,201.000000 31.833338,201.000000 1.000004,201.000000 
	C1.000003,134.333344 1.000003,67.666679 1.000001,1.000013 
	C67.666656,1.000009 134.333313,1.000009 200.999969,1.000004 
	C200.999985,67.666649 200.999985,134.333298 201.000000,200.999969 
	C165.500000,201.000000 130.000000,201.000000 94.000000,201.000000 
M62.391285,102.683250 
	C62.391285,102.683250 62.392262,102.605232 62.286148,102.001221 
	C61.937008,101.523872 61.587872,101.046524 61.199818,100.243240 
	C61.199818,100.243240 60.973068,100.005905 60.868633,99.281059 
	C59.913128,96.861717 58.957623,94.442383 58.130520,91.216583 
	C58.085510,90.131310 58.040501,89.046036 58.192474,87.767426 
	C58.280949,87.467026 58.217007,87.219276 58.133274,86.259178 
	C58.083729,85.486656 58.034184,84.714142 58.174358,83.709564 
	C58.251781,83.514130 58.252060,83.318581 58.736294,82.833199 
	C58.859104,82.662239 58.981911,82.491280 59.895718,81.939247 
	C61.665440,78.681358 59.979340,77.709831 57.024803,77.692345 
	C51.205414,77.657906 45.384357,77.615067 39.567432,77.738243 
	C38.595825,77.758820 37.641579,78.599182 36.170303,79.810089 
	C37.082142,81.746140 38.557571,83.615372 38.796539,85.631187 
	C39.427277,90.951759 38.771378,96.025757 35.547520,100.755730 
	C32.384541,105.396370 29.688974,110.406250 27.282143,115.487999 
	C26.241983,117.684166 26.442797,120.468094 26.055479,123.580536 
	C26.562857,124.163704 27.070232,124.746872 27.676714,125.289108 
	C27.676714,125.289108 27.643206,125.390968 28.032953,126.013115 
	C29.901163,126.596603 31.761145,127.651810 33.638962,127.684570 
	C43.465721,127.856018 53.300652,127.909729 63.123772,127.656494 
	C65.202553,127.602905 67.243904,126.097519 68.990578,125.030403 
	C68.990578,125.030403 69.298393,125.269440 69.909325,124.957581 
	C72.937149,120.766212 71.136429,117.156845 68.454834,113.605682 
	C68.454834,113.605682 68.433403,113.510101 68.299911,112.920593 
	C67.962440,112.442162 67.624962,111.963737 67.169846,111.005470 
	C66.905403,110.604172 66.640953,110.202873 66.231041,109.120567 
	C65.183983,107.379883 64.136925,105.639198 62.999935,103.962021 
	C62.999935,103.962021 63.106094,103.932945 63.097481,103.426521 
	C62.888023,103.180634 62.678566,102.934753 62.391285,102.683250 
M108.740417,70.820923 
	C108.446449,70.701233 108.216423,70.769325 107.253098,70.865250 
	C106.175705,70.919983 105.098312,70.974709 103.493141,70.885437 
	C103.317932,70.936005 103.142715,70.986565 102.960869,71.012192 
	C102.960869,71.012192 102.948410,71.036240 102.779915,70.815796 
	C102.479240,70.701347 102.240974,70.770996 101.414093,70.880127 
	C100.906883,71.190094 100.399673,71.500061 99.557755,72.577019 
	C99.557755,79.958504 99.557755,87.339989 99.557755,94.893837 
	C103.534012,94.893837 106.862511,95.152306 110.136337,94.839172 
	C116.631607,94.217896 120.986076,89.182808 120.957588,82.745567 
	C120.928612,76.199005 116.822037,71.839874 109.447853,70.942505 
	C109.264877,70.974892 109.081909,71.007286 108.740417,70.820923 
M79.087723,94.838440 
	C79.432663,94.503876 79.958817,94.229286 80.092674,93.824860 
	C80.871483,91.471840 81.813667,89.573608 84.920471,90.057907 
	C87.500290,90.460060 90.488258,89.075874 91.895767,93.013901 
	C92.336830,94.247940 95.059372,94.666542 96.737617,95.458405 
	C97.034706,95.081802 97.331802,94.705200 97.628891,94.328598 
	C94.939743,87.066292 92.361755,79.759804 89.502365,72.565155 
	C88.473671,69.976799 83.805229,69.772690 82.777695,72.283493 
	C79.791100,79.581268 77.147408,87.019386 74.162079,94.952911 
	C76.045479,94.952911 77.180725,94.952911 79.087723,94.838440 
M114.527550,108.536751 
	C111.991631,108.123314 109.463890,107.639183 106.914276,107.344055 
	C106.241684,107.266212 105.466606,108.048523 104.798180,107.964096 
	C100.915833,107.473717 97.051277,106.842514 93.001244,106.231873 
	C93.001244,111.817383 93.001244,116.705704 93.001244,121.594025 
	C93.455757,121.861786 93.910278,122.129547 94.364792,122.397308 
	C95.135460,121.297112 96.279266,120.290276 96.583687,119.073441 
	C96.976662,117.502693 96.356201,115.663696 96.806908,114.126312 
	C97.243607,112.636711 98.484344,111.382812 99.371948,110.025398 
	C100.273781,111.328011 101.549286,112.520287 101.975388,113.963364 
	C102.427864,115.495773 101.751678,117.354378 102.175446,118.904579 
	C102.512955,120.139206 103.763557,121.124222 104.608810,122.220047 
	C105.091980,121.931725 105.575150,121.643410 106.058319,121.355087 
	C106.058319,119.054161 105.705208,116.677643 106.176224,114.477562 
	C106.518929,112.876884 107.950211,111.509254 108.896149,110.037727 
	C109.795952,111.550583 111.111565,112.967506 111.488434,114.601006 
	C111.941460,116.564651 111.595551,118.712624 111.595551,120.780785 
	C112.095543,120.932434 112.595543,121.084084 113.095535,121.235741 
	C113.737938,120.082748 114.828789,118.968613 114.932701,117.768982 
	C115.175827,114.962334 114.945549,112.114677 114.527550,108.536751 
M77.129974,118.223793 
	C78.104240,126.001328 83.996178,120.122192 87.251709,121.694641 
	C87.765587,121.942848 89.305817,120.066139 91.294304,118.397583 
	C81.273834,117.480606 81.273834,117.480606 82.133911,113.727486 
	C84.542320,113.245941 86.865021,112.781532 90.279976,112.098732 
	C85.809006,109.120598 82.001137,105.826775 82.154915,104.950661 
	C84.539368,104.950661 86.986748,104.950661 89.403656,104.950661 
	C89.708481,100.750092 85.168106,99.711456 77.129486,101.925217 
	C77.129486,106.996063 77.129486,112.137428 77.129974,118.223793 
M118.541267,146.123245 
	C122.905899,143.124573 124.187439,139.426910 122.219032,135.131638 
	C120.087486,130.480377 116.385002,130.419678 112.243668,132.101395 
	C111.709816,125.983513 111.709816,125.983513 108.174988,126.612976 
	C108.174988,133.022644 108.174988,139.438828 108.174988,146.326553 
	C111.498642,146.326553 114.651466,146.326553 118.541267,146.123245 
M121.673332,106.975098 
	C120.478546,107.805435 119.283752,108.635773 117.703979,109.733665 
	C119.153328,110.888123 120.350426,111.841652 120.551025,112.001442 
	C119.395271,114.431305 118.362991,116.601585 117.330711,118.771866 
	C119.851540,119.783279 122.304733,121.072563 124.916985,121.708389 
	C126.657867,122.132118 128.625504,121.624252 131.103958,121.503502 
	C131.103958,119.078384 131.127457,116.483170 131.099289,113.888519 
	C131.030182,107.521629 129.044235,105.906425 121.673332,106.975098 
M92.850510,139.463943 
	C91.085968,142.573807 91.897141,144.827881 95.128654,146.252640 
	C100.385674,148.570450 105.226746,145.518784 105.210167,139.904831 
	C105.207230,138.910385 105.175064,137.916016 105.174934,136.921600 
	C105.174438,133.326859 103.361534,131.275543 99.806175,131.096909 
	C96.504463,130.931000 93.641792,131.725540 92.999084,135.311356 
	C95.560715,138.484497 99.018669,131.157639 101.334457,136.547180 
	C98.566177,137.354477 95.975471,138.109970 92.850510,139.463943 
M79.028015,146.300613 
	C82.648880,146.300613 86.269745,146.300613 90.129036,146.300613 
	C90.129036,145.025299 90.308571,143.303558 90.101906,143.255875 
	C87.338615,142.618378 84.521339,142.214905 81.245247,141.675461 
	C81.245247,136.481812 81.245247,131.281296 81.245247,125.076447 
	C79.359268,126.107712 77.315193,126.718002 77.323540,127.298790 
	C77.414108,133.600311 77.826698,139.897202 79.028015,146.300613 
M144.325729,121.665817 
	C144.544235,115.450722 144.873077,109.234993 144.837616,103.021347 
	C144.833313,102.268524 142.863739,101.526917 140.983795,100.200844 
	C140.983795,107.488029 140.856979,113.100922 141.094666,118.698326 
	C141.140244,119.771606 142.619614,120.783997 144.325729,121.665817 
M44.198463,73.371925 
	C46.042061,72.728638 48.152660,72.427086 49.609528,71.288818 
	C50.275185,70.768738 50.169662,67.741280 49.513130,67.345589 
	C47.812515,66.320625 45.008373,65.073219 43.729286,65.806465 
	C40.528584,67.641273 40.624660,70.551025 44.198463,73.371925 
M133.967911,108.179932 
	C133.967911,112.589218 133.967911,116.998505 133.967911,121.407791 
	C134.467316,121.671616 134.966736,121.935440 135.466141,122.199265 
	C136.286011,121.111557 137.726349,120.070808 137.812897,118.927605 
	C138.107803,115.031128 137.925735,111.098549 137.925735,106.520264 
	C136.393646,106.843040 135.232544,107.087662 133.967911,108.179932 
M57.103889,62.845627 
	C56.407795,61.450764 55.909401,59.871086 54.888927,58.779465 
	C54.602028,58.472572 52.310501,59.311676 51.799980,60.149868 
	C51.305359,60.961948 51.705750,63.388039 52.083298,63.473713 
	C53.560493,63.808933 55.184246,63.498314 57.103889,62.845627 
z"/>
<path fill="#133250" opacity="1.000000" stroke="none" 
	d="
M60.973068,100.005905 
	C60.973068,100.005905 61.199818,100.243240 61.191452,100.744781 
	C61.586147,101.699295 61.989204,102.152260 62.392265,102.605232 
	C62.392262,102.605232 62.391285,102.683250 62.399555,102.944221 
	C62.640583,103.447777 62.873341,103.690361 63.106094,103.932945 
	C63.106094,103.932945 62.999935,103.962021 63.024708,104.303207 
	C64.158485,106.363457 65.267502,108.082512 66.376511,109.801575 
	C66.640953,110.202873 66.905403,110.604172 67.187958,111.590195 
	C67.615173,112.619987 68.024292,113.065041 68.433403,113.510101 
	C68.433403,113.510101 68.454834,113.605682 68.411461,114.010193 
	C68.678185,118.032951 68.988289,121.651192 69.298393,125.269440 
	C69.298393,125.269440 68.990578,125.030403 68.724442,125.244980 
	C54.853279,125.436699 41.248241,125.413834 27.643206,125.390968 
	C27.643206,125.390968 27.676714,125.289108 27.679008,124.985985 
	C27.147497,124.116913 26.613693,123.550972 26.079887,122.985023 
	C26.442797,120.468094 26.241983,117.684166 27.282143,115.487999 
	C29.688974,110.406250 32.384541,105.396370 35.547520,100.755730 
	C38.771378,96.025757 39.427277,90.951759 38.796539,85.631187 
	C38.557571,83.615372 37.082142,81.746140 36.918350,79.422256 
	C43.597637,79.027878 49.539555,78.831909 55.451641,79.165146 
	C56.724567,79.236877 57.889847,81.218483 59.104713,82.320328 
	C58.981911,82.491280 58.859104,82.662239 58.341492,83.085648 
	C57.842503,83.546623 57.855152,83.747795 57.984638,83.941620 
	C58.034184,84.714142 58.083729,85.486656 58.009800,86.875366 
	C57.886326,87.491554 57.995491,87.960762 57.995491,87.960762 
	C58.040501,89.046036 58.085510,90.131310 57.989246,92.020477 
	C58.889671,95.218216 59.931370,97.612061 60.973068,100.005905 
M31.380207,122.806091 
	C41.861092,122.879982 52.342003,122.980042 62.822796,122.969002 
	C63.522942,122.968262 64.222198,122.125320 65.387886,121.165527 
	C64.217918,118.105621 63.047947,115.045708 61.932365,111.561356 
	C61.886333,111.244926 61.711727,111.035927 61.270744,110.190002 
	C57.213863,101.936203 51.722889,94.098206 53.715851,84.084602 
	C53.764252,83.841408 53.431522,83.522362 53.232090,83.157303 
	C50.040314,83.157303 46.815250,83.157303 43.061832,83.157303 
	C43.983196,91.055809 43.184704,98.294945 38.371582,104.656570 
	C37.317753,106.049454 37.178265,108.134117 35.975872,110.139404 
	C34.370770,113.699951 32.765671,117.260498 30.966043,121.394218 
	C31.006296,121.590683 31.046551,121.787155 31.380207,122.806091 
z"/>
<path fill="#EC4A49" opacity="1.000000" stroke="none" 
	d="
M102.967506,71.037117 
	C103.142715,70.986565 103.317932,70.936005 103.999054,71.226807 
	C106.331169,71.410988 108.157364,71.253799 109.983566,71.096619 
	C116.822037,71.839874 120.928612,76.199005 120.957588,82.745567 
	C120.986076,89.182808 116.631607,94.217896 110.136337,94.839172 
	C106.862511,95.152306 103.534012,94.893837 99.557755,94.893837 
	C99.557755,87.339989 99.557755,79.958504 99.781006,72.673424 
	C100.004265,79.511589 100.004265,86.253342 100.004265,92.995102 
	C101.001854,87.422287 100.846809,81.841957 101.092117,76.279282 
	C101.170242,74.507767 102.312294,72.783180 102.967506,71.037117 
M111.599602,76.297066 
	C109.548943,76.031288 107.498291,75.765511 105.164352,75.463020 
	C105.164352,80.658730 105.164352,85.208939 105.164352,89.845070 
	C109.498299,90.411354 113.225739,90.043114 115.069710,85.794174 
	C116.648331,82.156700 115.667633,78.999458 111.599602,76.297066 
z"/>
<path fill="#E64845" opacity="1.000000" stroke="none" 
	d="
M78.701843,94.895676 
	C77.180725,94.952911 76.045479,94.952911 74.162079,94.952911 
	C77.147408,87.019386 79.791100,79.581268 82.777695,72.283493 
	C83.805229,69.772690 88.473671,69.976799 89.502365,72.565155 
	C92.361755,79.759804 94.939743,87.066292 97.628891,94.328598 
	C97.331802,94.705200 97.034706,95.081802 96.737617,95.458405 
	C95.059372,94.666542 92.336830,94.247940 91.895767,93.013901 
	C90.488258,89.075874 87.500290,90.460060 84.920471,90.057907 
	C81.813667,89.573608 80.871483,91.471840 80.092674,93.824860 
	C79.958817,94.229286 79.432663,94.503876 78.701843,94.895676 
M83.874130,85.820091 
	C85.487000,85.506561 87.099861,85.193024 88.948441,84.833664 
	C87.933212,82.160118 87.157455,80.117210 85.826996,76.613533 
	C84.697937,80.505196 83.996590,82.922638 83.874130,85.820091 
z"/>
<path fill="#1A3553" opacity="1.000000" stroke="none" 
	d="
M114.717255,108.910187 
	C114.945549,112.114677 115.175827,114.962334 114.932701,117.768982 
	C114.828789,118.968613 113.737938,120.082748 113.095535,121.235741 
	C112.595543,121.084084 112.095543,120.932434 111.595551,120.780785 
	C111.595551,118.712624 111.941460,116.564651 111.488434,114.601006 
	C111.111565,112.967506 109.795952,111.550583 108.896149,110.037727 
	C107.950211,111.509254 106.518929,112.876884 106.176224,114.477562 
	C105.705208,116.677643 106.058319,119.054161 106.058319,121.355087 
	C105.575150,121.643410 105.091980,121.931725 104.608810,122.220047 
	C103.763557,121.124222 102.512955,120.139206 102.175446,118.904579 
	C101.751678,117.354378 102.427864,115.495773 101.975388,113.963364 
	C101.549286,112.520287 100.273781,111.328011 99.371948,110.025398 
	C98.484344,111.382812 97.243607,112.636711 96.806908,114.126312 
	C96.356201,115.663696 96.976662,117.502693 96.583687,119.073441 
	C96.279266,120.290276 95.135460,121.297112 94.364792,122.397308 
	C93.910278,122.129547 93.455757,121.861786 93.001244,121.594025 
	C93.001244,116.705704 93.001244,111.817383 93.001244,106.231873 
	C97.051277,106.842514 100.915833,107.473717 104.798180,107.964096 
	C105.466606,108.048523 106.241684,107.266212 106.914276,107.344055 
	C109.463890,107.639183 111.991631,108.123314 114.717255,108.910187 
z"/>
<path fill="#1F3957" opacity="1.000000" stroke="none" 
	d="
M77.129730,117.751297 
	C77.129486,112.137428 77.129486,106.996063 77.129486,101.925217 
	C85.168106,99.711456 89.708481,100.750092 89.403656,104.950661 
	C86.986748,104.950661 84.539368,104.950661 82.154915,104.950661 
	C82.001137,105.826775 85.809006,109.120598 90.279976,112.098732 
	C86.865021,112.781532 84.542320,113.245941 82.133911,113.727486 
	C81.273834,117.480606 81.273834,117.480606 91.294304,118.397583 
	C89.305817,120.066139 87.765587,121.942848 87.251709,121.694641 
	C83.996178,120.122192 78.104240,126.001328 77.129730,117.751297 
z"/>
<path fill="#183451" opacity="1.000000" stroke="none" 
	d="
M118.172783,146.224899 
	C114.651466,146.326553 111.498642,146.326553 108.174988,146.326553 
	C108.174988,139.438828 108.174988,133.022644 108.174988,126.612976 
	C111.709816,125.983513 111.709816,125.983513 112.243668,132.101395 
	C116.385002,130.419678 120.087486,130.480377 122.219032,135.131638 
	C124.187439,139.426910 122.905899,143.124573 118.172783,146.224899 
M117.063026,135.011688 
	C115.457741,135.649185 112.894302,135.924454 112.482697,137.013229 
	C111.932518,138.468521 112.775818,140.698105 113.604057,142.292068 
	C113.891869,142.845947 116.800591,142.907501 116.994858,142.489212 
	C117.815781,140.721527 118.116348,138.697784 118.476753,136.743591 
	C118.543724,136.380432 118.010078,135.906494 117.063026,135.011688 
z"/>
<path fill="#213B56" opacity="1.000000" stroke="none" 
	d="
M122.033813,106.872543 
	C129.044235,105.906425 131.030182,107.521629 131.099289,113.888519 
	C131.127457,116.483170 131.103958,119.078384 131.103958,121.503502 
	C128.625504,121.624252 126.657867,122.132118 124.916985,121.708389 
	C122.304733,121.072563 119.851540,119.783279 117.330711,118.771866 
	C118.362991,116.601585 119.395271,114.431305 120.551025,112.001442 
	C120.350426,111.841652 119.153328,110.888123 117.703979,109.733665 
	C119.283752,108.635773 120.478546,107.805435 122.033813,106.872543 
z"/>
<path fill="#243D57" opacity="1.000000" stroke="none" 
	d="
M93.117638,139.164703 
	C95.975471,138.109970 98.566177,137.354477 101.334457,136.547180 
	C99.018669,131.157639 95.560715,138.484497 92.999084,135.311356 
	C93.641792,131.725540 96.504463,130.931000 99.806175,131.096909 
	C103.361534,131.275543 105.174438,133.326859 105.174934,136.921600 
	C105.175064,137.916016 105.207230,138.910385 105.210167,139.904831 
	C105.226746,145.518784 100.385674,148.570450 95.128654,146.252640 
	C91.897141,144.827881 91.085968,142.573807 93.117638,139.164703 
M95.591324,140.947800 
	C95.909828,140.641068 96.228340,140.334351 96.546852,140.027634 
	C96.336647,139.846390 96.126442,139.665161 95.916245,139.483917 
	C95.600349,139.979156 95.284462,140.474396 94.400902,141.050644 
	C94.083511,141.364990 93.766121,141.679321 93.448723,141.993652 
	C93.659653,142.179153 93.870575,142.364639 94.081505,142.550140 
	C94.396858,142.042984 94.712212,141.535843 95.591324,140.947800 
z"/>
<path fill="#1A3553" opacity="1.000000" stroke="none" 
	d="
M78.589737,146.247986 
	C77.826698,139.897202 77.414108,133.600311 77.323540,127.298790 
	C77.315193,126.718002 79.359268,126.107712 81.245247,125.076447 
	C81.245247,131.281296 81.245247,136.481812 81.245247,141.675461 
	C84.521339,142.214905 87.338615,142.618378 90.101906,143.255875 
	C90.308571,143.303558 90.129036,145.025299 90.129036,146.300613 
	C86.269745,146.300613 82.648880,146.300613 78.589737,146.247986 
z"/>
<path fill="#1A3553" opacity="1.000000" stroke="none" 
	d="
M143.881622,121.745148 
	C142.619614,120.783997 141.140244,119.771606 141.094666,118.698326 
	C140.856979,113.100922 140.983795,107.488029 140.983795,100.200844 
	C142.863739,101.526917 144.833313,102.268524 144.837616,103.021347 
	C144.873077,109.234993 144.544235,115.450722 143.881622,121.745148 
z"/>
<path fill="#3A4F65" opacity="1.000000" stroke="none" 
	d="
M27.838079,125.702042 
	C41.248241,125.413834 54.853279,125.436699 68.880409,125.360306 
	C67.243904,126.097519 65.202553,127.602905 63.123772,127.656494 
	C53.300652,127.909729 43.465721,127.856018 33.638962,127.684570 
	C31.761145,127.651810 29.901163,126.596603 27.838079,125.702042 
z"/>
<path fill="#E44F4B" opacity="1.000000" stroke="none" 
	d="
M43.867592,73.221161 
	C40.624660,70.551025 40.528584,67.641273 43.729286,65.806465 
	C45.008373,65.073219 47.812515,66.320625 49.513130,67.345589 
	C50.169662,67.741280 50.275185,70.768738 49.609528,71.288818 
	C48.152660,72.427086 46.042061,72.728638 43.867592,73.221161 
z"/>
<path fill="#203851" opacity="1.000000" stroke="none" 
	d="
M134.019669,107.756104 
	C135.232544,107.087662 136.393646,106.843040 137.925735,106.520264 
	C137.925735,111.098549 138.107803,115.031128 137.812897,118.927605 
	C137.726349,120.070808 136.286011,121.111557 135.466141,122.199265 
	C134.966736,121.935440 134.467316,121.671616 133.967911,121.407791 
	C133.967911,116.998505 133.967911,112.589218 134.019669,107.756104 
z"/>
<path fill="#0D223B" opacity="1.000000" stroke="none" 
	d="
M59.500214,82.129791 
	C57.889847,81.218483 56.724567,79.236877 55.451641,79.165146 
	C49.539555,78.831909 43.597637,79.027878 37.172855,79.047577 
	C37.641579,78.599182 38.595825,77.758820 39.567432,77.738243 
	C45.384357,77.615067 51.205414,77.657906 57.024803,77.692345 
	C59.979340,77.709831 61.665440,78.681358 59.500214,82.129791 
z"/>
<path fill="#E05958" opacity="1.000000" stroke="none" 
	d="
M56.928711,63.136665 
	C55.184246,63.498314 53.560493,63.808933 52.083298,63.473713 
	C51.705750,63.388039 51.305359,60.961948 51.799980,60.149868 
	C52.310501,59.311676 54.602028,58.472572 54.888927,58.779465 
	C55.909401,59.871086 56.407795,61.450764 56.928711,63.136665 
z"/>
<path fill="#CE4040" opacity="1.000000" stroke="none" 
	d="
M102.964188,71.024658 
	C102.312294,72.783180 101.170242,74.507767 101.092117,76.279282 
	C100.846809,81.841957 101.001854,87.422287 100.004265,92.995102 
	C100.004265,86.253342 100.004265,79.511589 99.948364,72.289932 
	C100.399673,71.500061 100.906883,71.190094 101.960144,70.969894 
	C102.506195,71.059662 102.948410,71.036240 102.948410,71.036240 
	C102.948410,71.036240 102.960869,71.012192 102.964188,71.024658 
z"/>
<path fill="#3A4F65" opacity="1.000000" stroke="none" 
	d="
M69.603859,125.113510 
	C68.988289,121.651192 68.678185,118.032951 68.456802,114.028717 
	C71.136429,117.156845 72.937149,120.766212 69.603859,125.113510 
z"/>
<path fill="#3A4F65" opacity="1.000000" stroke="none" 
	d="
M60.920853,99.643478 
	C59.931370,97.612061 58.889671,95.218216 57.925045,92.423706 
	C58.957623,94.442383 59.913128,96.861717 60.920853,99.643478 
z"/>
<path fill="#3A4F65" opacity="1.000000" stroke="none" 
	d="
M66.303772,109.461075 
	C65.267502,108.082512 64.158485,106.363457 63.069672,104.271454 
	C64.136925,105.639198 65.183983,107.379883 66.303772,109.461075 
z"/>
<path fill="#CE4040" opacity="1.000000" stroke="none" 
	d="
M109.715714,71.019562 
	C108.157364,71.253799 106.331169,71.410988 104.262939,71.298813 
	C105.098312,70.974709 106.175705,70.919983 107.863632,70.962326 
	C108.474159,71.059410 108.898941,71.039673 108.898941,71.039673 
	C109.081909,71.007286 109.264877,70.974892 109.715714,71.019562 
z"/>
<path fill="#3A4F65" opacity="1.000000" stroke="none" 
	d="
M26.067684,123.282776 
	C26.613693,123.550972 27.147497,124.116913 27.629456,125.006454 
	C27.070232,124.746872 26.562857,124.163704 26.067684,123.282776 
z"/>
<path fill="#3A4F65" opacity="1.000000" stroke="none" 
	d="
M62.339207,102.303223 
	C61.989204,102.152260 61.586147,101.699295 61.210911,100.907753 
	C61.587872,101.046524 61.937008,101.523872 62.339207,102.303223 
z"/>
<path fill="#3A4F65" opacity="1.000000" stroke="none" 
	d="
M68.366653,113.215347 
	C68.024292,113.065041 67.615173,112.619987 67.246773,111.830124 
	C67.624962,111.963737 67.962440,112.442162 68.366653,113.215347 
z"/>
<path fill="#3A4F65" opacity="1.000000" stroke="none" 
	d="
M58.093983,87.864090 
	C57.995491,87.960762 57.886326,87.491554 57.943489,87.257874 
	C58.217007,87.219276 58.280949,87.467026 58.093983,87.864090 
z"/>
<path fill="#3A4F65" opacity="1.000000" stroke="none" 
	d="
M58.079498,83.825592 
	C57.855152,83.747795 57.842503,83.546623 58.060944,83.230515 
	C58.252060,83.318581 58.251781,83.514130 58.079498,83.825592 
z"/>
<path fill="#EC4A49" opacity="1.000000" stroke="none" 
	d="
M102.864166,70.926018 
	C102.948410,71.036240 102.506195,71.059662 102.285660,71.042198 
	C102.240974,70.770996 102.479240,70.701347 102.864166,70.926018 
z"/>
<path fill="#EC4A49" opacity="1.000000" stroke="none" 
	d="
M108.819679,70.930298 
	C108.898941,71.039673 108.474159,71.059410 108.262245,71.042313 
	C108.216423,70.769325 108.446449,70.701233 108.819679,70.930298 
z"/>
<path fill="#3A4F65" opacity="1.000000" stroke="none" 
	d="
M63.101788,103.679733 
	C62.873341,103.690361 62.640583,103.447777 62.438469,102.947029 
	C62.678566,102.934753 62.888023,103.180634 63.101788,103.679733 
z"/>
<path fill="#F5F6F7" opacity="1.000000" stroke="none" 
	d="
M36.617695,109.900192 
	C37.178265,108.134117 37.317753,106.049454 38.371582,104.656570 
	C43.184704,98.294945 43.983196,91.055809 43.061832,83.157303 
	C46.815250,83.157303 50.040314,83.157303 53.232090,83.157303 
	C53.431522,83.522362 53.764252,83.841408 53.715851,84.084602 
	C51.722889,94.098206 57.213863,101.936203 61.221233,110.826378 
	C61.159859,111.655571 61.147999,111.848381 60.863075,112.047989 
	C60.411179,112.020416 60.232346,111.986053 60.010353,111.698318 
	C59.788559,111.161034 59.609928,110.877121 59.295311,110.307259 
	C58.440899,109.344910 57.722466,108.668526 57.176178,107.897385 
	C57.420177,107.693382 57.577049,107.523544 57.549610,107.485031 
	C57.408115,107.286461 57.219368,107.121559 56.967743,106.721321 
	C56.633881,106.223038 56.344158,106.178711 55.560997,106.261658 
	C48.804447,106.730721 41.808620,103.857010 36.617695,109.900192 
z"/>
<path fill="#D6504D" opacity="1.000000" stroke="none" 
	d="
M36.296783,110.019798 
	C41.808620,103.857010 48.804447,106.730721 55.554306,106.415802 
	C56.005829,106.673042 55.983124,106.981499 55.519066,106.989563 
	C50.768139,106.997627 46.481270,106.997627 42.328148,106.997627 
	C42.621674,109.727577 42.800419,111.390022 42.604427,112.996529 
	C37.197823,111.450371 35.702545,112.774467 34.733059,119.499504 
	C44.009243,119.499504 53.298565,119.499504 62.952919,119.499504 
	C61.767830,116.639877 60.822781,114.359459 59.921921,112.047546 
	C59.966118,112.016052 60.053516,111.951691 60.053516,111.951691 
	C60.232346,111.986053 60.411179,112.020416 61.048016,112.030441 
	C61.506023,112.006111 61.877975,111.985802 61.877975,111.985802 
	C63.047947,115.045708 64.217918,118.105621 64.746002,121.395905 
	C53.448940,121.608337 42.793751,121.590393 32.008316,121.409851 
	C31.633608,121.114082 31.394444,120.972015 31.160568,120.821045 
	C32.765671,117.260498 34.370770,113.699951 36.296783,110.019798 
z"/>
<path fill="#FEFEFE" opacity="1.000000" stroke="none" 
	d="
M32.138565,121.572456 
	C42.793751,121.590393 53.448940,121.608337 64.513000,121.650185 
	C64.222198,122.125320 63.522942,122.968262 62.822796,122.969002 
	C52.342003,122.980042 41.861092,122.879982 31.516487,122.343620 
	C31.814703,121.778244 31.976635,121.675346 32.138565,121.572456 
z"/>
<path fill="#E44F4B" opacity="1.000000" stroke="none" 
	d="
M61.905170,111.773575 
	C61.877975,111.985802 61.506023,112.006111 61.321083,112.023651 
	C61.147999,111.848381 61.159859,111.655571 61.290134,111.198547 
	C61.711727,111.035927 61.886333,111.244926 61.905170,111.773575 
z"/>
<path fill="#EE9E9F" opacity="1.000000" stroke="none" 
	d="
M32.008316,121.409851 
	C31.976635,121.675346 31.814703,121.778244 31.369789,121.932388 
	C31.046551,121.787155 31.006296,121.590683 31.063307,121.107635 
	C31.394444,120.972015 31.633608,121.114082 32.008316,121.409851 
z"/>
<path fill="#FEF4F3" opacity="1.000000" stroke="none" 
	d="
M111.959908,76.500496 
	C115.667633,78.999458 116.648331,82.156700 115.069710,85.794174 
	C113.225739,90.043114 109.498299,90.411354 105.164352,89.845070 
	C105.164352,85.208939 105.164352,80.658730 105.164352,75.463020 
	C107.498291,75.765511 109.548943,76.031288 111.959908,76.500496 
z"/>
<path fill="#FEE3E1" opacity="1.000000" stroke="none" 
	d="
M83.584686,85.580078 
	C83.996590,82.922638 84.697937,80.505196 85.826996,76.613533 
	C87.157455,80.117210 87.933212,82.160118 88.948441,84.833664 
	C87.099861,85.193024 85.487000,85.506561 83.584686,85.580078 
z"/>
<path fill="#EAF0F4" opacity="1.000000" stroke="none" 
	d="
M117.408325,135.247681 
	C118.010078,135.906494 118.543724,136.380432 118.476753,136.743591 
	C118.116348,138.697784 117.815781,140.721527 116.994858,142.489212 
	C116.800591,142.907501 113.891869,142.845947 113.604057,142.292068 
	C112.775818,140.698105 111.932518,138.468521 112.482697,137.013229 
	C112.894302,135.924454 115.457741,135.649185 117.408325,135.247681 
z"/>
<path fill="#183451" opacity="1.000000" stroke="none" 
	d="
M94.968567,140.969620 
	C95.284462,140.474396 95.600349,139.979156 95.916245,139.483917 
	C96.126442,139.665161 96.336647,139.846390 96.546844,140.027634 
	C96.228340,140.334351 95.909828,140.641068 95.294922,140.973267 
	C94.998528,140.998734 94.968567,140.969620 94.968567,140.969620 
z"/>
<path fill="#183451" opacity="1.000000" stroke="none" 
	d="
M95.013046,141.013702 
	C94.712212,141.535843 94.396858,142.042984 94.081505,142.550140 
	C93.870575,142.364639 93.659653,142.179153 93.448730,141.993652 
	C93.766121,141.679321 94.083511,141.364990 94.684738,141.010132 
	C94.968567,140.969620 94.998528,140.998734 95.013046,141.013702 
z"/>
<path fill="#E44F4B" opacity="1.000000" stroke="none" 
	d="
M42.979164,113.052467 
	C42.800419,111.390022 42.621674,109.727577 42.328148,106.997627 
	C46.481270,106.997627 50.768139,106.997627 55.531319,107.001328 
	C56.007633,107.005028 56.033596,107.025513 56.114208,107.227051 
	C56.363022,107.689880 56.601547,107.837746 56.933052,107.902763 
	C56.955704,107.933342 57.004032,107.992134 57.004032,107.992134 
	C57.722466,108.668526 58.440899,109.344910 59.175499,110.418571 
	C59.191673,110.815842 58.963058,111.049767 58.617088,111.068253 
	C56.413902,112.435799 54.614906,113.875191 52.688499,115.116905 
	C47.018024,118.771973 46.998245,118.741287 42.979164,113.052467 
z"/>
<path fill="#E44F4B" opacity="1.000000" stroke="none" 
	d="
M59.311485,110.704529 
	C59.609928,110.877121 59.788559,111.161034 60.010353,111.698318 
	C60.053516,111.951691 59.966118,112.016052 59.731533,111.912552 
	C59.258564,111.598450 59.080601,111.345352 58.963058,111.049767 
	C58.963058,111.049767 59.191673,110.815842 59.311485,110.704529 
z"/>
<path fill="#E44F4B" opacity="1.000000" stroke="none" 
	d="
M57.047108,106.944908 
	C57.219368,107.121559 57.408115,107.286461 57.549610,107.485031 
	C57.577049,107.523544 57.420177,107.693382 57.176178,107.897385 
	C57.004032,107.992134 56.955704,107.933342 56.956078,107.703079 
	C56.956455,107.472824 56.927952,107.070053 56.958267,107.039268 
	C56.988586,107.008484 57.047108,106.944908 57.047108,106.944908 
z"/>
<path fill="#E44F4B" opacity="1.000000" stroke="none" 
	d="
M55.995377,106.993263 
	C55.983124,106.981499 56.005829,106.673042 56.012520,106.518906 
	C56.344158,106.178711 56.633881,106.223038 56.967743,106.721321 
	C57.047108,106.944908 56.988586,107.008484 56.735397,107.014763 
	C56.482204,107.021042 56.033596,107.025513 56.033596,107.025513 
	C56.033596,107.025513 56.007633,107.005028 55.995377,106.993263 
z"/>
<path fill="#EF4643" opacity="1.000000" stroke="none" 
	d="
M58.617088,111.068253 
	C59.080601,111.345352 59.258564,111.598450 59.687340,111.944046 
	C60.822781,114.359459 61.767830,116.639877 62.952919,119.499504 
	C53.298565,119.499504 44.009243,119.499504 34.733059,119.499504 
	C35.702545,112.774467 37.197823,111.450371 42.604427,112.996529 
	C46.998245,118.741287 47.018024,118.771973 52.688499,115.116905 
	C54.614906,113.875191 56.413902,112.435799 58.617088,111.068253 
z"/>
<path fill="#D6504D" opacity="1.000000" stroke="none" 
	d="
M56.114208,107.227051 
	C56.033596,107.025513 56.482204,107.021042 56.705078,107.045547 
	C56.927952,107.070053 56.956455,107.472824 56.933426,107.672501 
	C56.601547,107.837746 56.363022,107.689880 56.114208,107.227051 
z"/>
</svg>
